<svg xmlns="http://www.w3.org/2000/svg" xmlns:xlink="http://www.w3.org/1999/xlink" width="500" zoomAndPan="magnify" viewBox="0 0 375 374.999991" height="500" preserveAspectRatio="xMidYMid meet" version="1.0"><defs><clipPath id="2ec300ddb1"><path d="M 103 122.683594 L 227 122.683594 L 227 204 L 103 204 Z M 103 122.683594 " clip-rule="nonzero"/></clipPath><clipPath id="344e578531"><path d="M 97.320312 135 L 277.320312 135 L 277.320312 252.433594 L 97.320312 252.433594 Z M 97.320312 135 " clip-rule="nonzero"/></clipPath></defs><rect x="-37.5" width="450" fill="#ffffff" y="-37.499999" height="449.999989" fill-opacity="1"/><rect x="-37.5" width="450" fill="#3ea0e0" y="-37.499999" height="449.999989" fill-opacity="1"/><path fill="#9bb9c1" d="M 160.136719 143.621094 C 163.738281 132.398438 174.253906 124.265625 186.640625 124.265625 C 202 124.265625 214.472656 136.773438 214.472656 152.175781 C 214.472656 155.179688 214.003906 158.074219 213.128906 160.78125 C 220.265625 164.265625 225.1875 171.609375 225.1875 180.101562 C 225.1875 191.894531 215.667969 201.5 203.910156 201.574219 L 124.414062 201.574219 C 113.839844 201.5 105.273438 192.871094 105.273438 182.242188 C 105.273438 171.585938 113.914062 162.917969 124.539062 162.917969 C 125.304688 162.917969 126.042969 162.957031 126.769531 163.042969 C 127.792969 150.953125 137.914062 141.449219 150.238281 141.449219 C 153.777344 141.449219 157.128906 142.226562 160.136719 143.621094 " fill-opacity="1" fill-rule="evenodd"/><g clip-path="url(#2ec300ddb1)"><path fill="#000000" d="M 159.214844 141.519531 C 163.480469 130.496094 174.152344 122.683594 186.640625 122.683594 C 202.875 122.683594 216.050781 135.898438 216.050781 152.175781 C 216.050781 154.882812 215.695312 157.503906 215.015625 159.988281 C 222.019531 163.933594 226.761719 171.460938 226.761719 180.101562 C 226.761719 192.773438 216.542969 203.070312 203.921875 203.15625 L 124.414062 203.15625 C 112.964844 203.082031 103.695312 193.738281 103.695312 182.242188 C 103.695312 170.707031 113.039062 161.335938 124.539062 161.335938 C 124.824219 161.335938 125.105469 161.335938 125.378906 161.351562 C 127.175781 149.199219 137.628906 139.863281 150.238281 139.863281 C 153.394531 139.863281 156.429688 140.445312 159.214844 141.519531 Z M 159.472656 145.058594 C 159.878906 145.253906 160.359375 145.253906 160.765625 145.082031 C 161.1875 144.894531 161.507812 144.539062 161.640625 144.117188 C 165.042969 133.523438 174.953125 125.847656 186.640625 125.847656 C 201.136719 125.847656 212.894531 137.652344 212.894531 152.175781 C 212.894531 155.007812 212.453125 157.738281 211.625 160.300781 C 211.390625 161.039062 211.738281 161.855469 212.441406 162.203125 C 219.046875 165.429688 223.609375 172.226562 223.609375 180.101562 C 223.609375 191.03125 214.792969 199.917969 203.898438 199.992188 C 203.910156 199.992188 203.773438 199.992188 203.773438 199.992188 C 203.773438 199.992188 124.539062 199.992188 124.539062 199.992188 C 124.550781 199.992188 124.429688 199.992188 124.429688 199.992188 C 114.714844 199.929688 106.851562 191.996094 106.851562 182.242188 C 106.851562 172.449219 114.777344 164.503906 124.539062 164.503906 C 125.242188 164.503906 125.917969 164.539062 126.585938 164.613281 C 127.015625 164.664062 127.4375 164.539062 127.769531 164.265625 C 128.101562 163.996094 128.296875 163.613281 128.347656 163.179688 C 129.296875 151.894531 138.738281 143.03125 150.238281 143.03125 C 153.53125 143.03125 156.664062 143.757812 159.472656 145.058594 " fill-opacity="1" fill-rule="evenodd"/></g><path fill="#dae7ef" d="M 179.8125 165.453125 C 185.125 148.914062 200.617188 136.921875 218.875 136.921875 C 241.519531 136.921875 259.898438 155.355469 259.898438 178.0625 C 259.898438 182.488281 259.195312 186.742188 257.914062 190.734375 C 268.425781 195.875 275.675781 206.691406 275.675781 219.203125 C 275.675781 236.597656 261.648438 250.738281 244.328125 250.851562 L 127.175781 250.851562 C 111.582031 250.75 98.960938 238.03125 98.960938 222.367188 C 98.960938 206.644531 111.683594 193.886719 127.363281 193.886719 C 128.472656 193.886719 129.566406 193.949219 130.640625 194.070312 C 132.15625 176.257812 147.070312 162.238281 165.230469 162.238281 C 170.441406 162.238281 175.386719 163.390625 179.8125 165.453125 " fill-opacity="1" fill-rule="evenodd"/><g clip-path="url(#344e578531)"><path fill="#000000" d="M 178.886719 163.328125 C 184.878906 146.996094 200.53125 135.339844 218.875 135.339844 C 242.394531 135.339844 261.476562 154.476562 261.476562 178.0625 C 261.476562 182.179688 260.894531 186.160156 259.8125 189.929688 C 270.191406 195.542969 277.253906 206.558594 277.253906 219.203125 C 277.253906 237.472656 262.523438 252.320312 244.328125 252.433594 L 127.164062 252.433594 C 110.707031 252.332031 97.382812 238.894531 97.382812 222.367188 C 97.382812 205.777344 110.820312 192.304688 127.363281 192.304688 C 127.992188 192.304688 128.617188 192.328125 129.234375 192.367188 C 131.539062 174.492188 146.789062 160.65625 165.230469 160.65625 C 170.0625 160.65625 174.671875 161.609375 178.886719 163.328125 Z M 179.144531 166.898438 C 179.566406 167.085938 180.035156 167.085938 180.453125 166.914062 C 180.859375 166.726562 181.179688 166.382812 181.316406 165.9375 C 186.429688 150.027344 201.320312 138.503906 218.875 138.503906 C 240.644531 138.503906 258.320312 156.230469 258.320312 178.0625 C 258.320312 182.316406 257.652344 186.40625 256.410156 190.25 C 256.164062 191.007812 256.507812 191.808594 257.222656 192.15625 C 267.207031 197.039062 274.097656 207.324219 274.097656 219.203125 C 274.097656 235.730469 260.773438 249.167969 244.316406 249.265625 C 244.316406 249.265625 244.105469 249.265625 244.105469 249.265625 C 244.121094 249.265625 127.363281 249.265625 127.363281 249.265625 C 127.375 249.265625 127.175781 249.265625 127.175781 249.265625 C 112.457031 249.167969 100.539062 237.152344 100.539062 222.367188 C 100.539062 207.519531 112.558594 195.46875 127.363281 195.46875 C 128.410156 195.46875 129.445312 195.53125 130.457031 195.640625 C 130.886719 195.691406 131.320312 195.566406 131.640625 195.296875 C 131.972656 195.023438 132.179688 194.640625 132.21875 194.207031 C 133.648438 177.199219 147.898438 163.820312 165.230469 163.820312 C 170.210938 163.820312 174.917969 164.921875 179.144531 166.898438 " fill-opacity="1" fill-rule="evenodd"/></g></svg>