<svg xmlns="http://www.w3.org/2000/svg" xmlns:xlink="http://www.w3.org/1999/xlink" width="500" zoomAndPan="magnify" viewBox="0 0 375 374.999991" height="500" preserveAspectRatio="xMidYMid meet" version="1.0"><defs><clipPath id="b46e24a0b4"><path d="M 93.414062 106.703125 L 281.664062 106.703125 L 281.664062 228 L 93.414062 228 Z M 93.414062 106.703125 " clip-rule="nonzero"/></clipPath><clipPath id="9d93b1e442"><path d="M 156 230 L 182 230 L 182 267.953125 L 156 267.953125 Z M 156 230 " clip-rule="nonzero"/></clipPath></defs><rect x="-37.5" width="450" fill="#ffffff" y="-37.499999" height="449.999989" fill-opacity="1"/><rect x="-37.5" width="450" fill="#3ea0e0" y="-37.499999" height="449.999989" fill-opacity="1"/><path fill="#dae7ef" d="M 179.722656 137.890625 C 185.253906 120.761719 201.386719 108.339844 220.394531 108.339844 C 243.972656 108.339844 263.109375 127.429688 263.109375 150.949219 C 263.109375 155.53125 262.378906 159.9375 261.042969 164.070312 C 271.992188 169.398438 279.539062 180.597656 279.539062 193.554688 C 279.539062 211.566406 264.933594 226.214844 246.898438 226.328125 L 124.914062 226.328125 C 108.679688 226.226562 95.535156 213.054688 95.535156 196.832031 C 95.535156 180.546875 108.78125 167.335938 125.109375 167.335938 C 126.261719 167.335938 127.40625 167.398438 128.523438 167.527344 C 130.101562 149.078125 145.632812 134.5625 164.539062 134.5625 C 169.96875 134.5625 175.113281 135.75 179.722656 137.890625 " fill-opacity="1" fill-rule="evenodd"/><g clip-path="url(#b46e24a0b4)"><path fill="#000000" d="M 178.757812 135.6875 C 184.996094 118.777344 201.296875 106.703125 220.394531 106.703125 C 244.886719 106.703125 264.753906 126.519531 264.753906 150.949219 C 264.753906 155.210938 264.152344 159.332031 263.019531 163.238281 C 273.828125 169.050781 281.183594 180.457031 281.183594 193.554688 C 281.183594 212.476562 265.84375 227.851562 246.898438 227.96875 L 124.902344 227.96875 C 107.769531 227.867188 93.894531 213.949219 93.894531 196.832031 C 93.894531 179.652344 107.882812 165.695312 125.109375 165.695312 C 125.761719 165.695312 126.417969 165.722656 127.058594 165.761719 C 129.460938 147.25 145.335938 132.921875 164.539062 132.921875 C 169.570312 132.921875 174.371094 133.90625 178.757812 135.6875 Z M 179.027344 139.386719 C 179.464844 139.578125 179.953125 139.578125 180.390625 139.402344 C 180.8125 139.207031 181.144531 138.851562 181.289062 138.390625 C 186.613281 121.914062 202.117188 109.980469 220.394531 109.980469 C 243.0625 109.980469 261.46875 128.339844 261.46875 150.949219 C 261.46875 155.351562 260.773438 159.589844 259.480469 163.570312 C 259.222656 164.351562 259.582031 165.183594 260.324219 165.542969 C 270.722656 170.601562 277.898438 181.25 277.898438 193.554688 C 277.898438 210.671875 264.023438 224.589844 246.886719 224.691406 C 246.886719 224.691406 246.667969 224.691406 246.667969 224.691406 C 246.683594 224.691406 125.109375 224.691406 125.109375 224.691406 C 125.121094 224.691406 124.914062 224.691406 124.914062 224.691406 C 109.589844 224.589844 97.179688 212.144531 97.179688 196.832031 C 97.179688 181.457031 109.695312 168.972656 125.109375 168.972656 C 126.199219 168.972656 127.277344 169.039062 128.328125 169.152344 C 128.777344 169.203125 129.226562 169.078125 129.5625 168.796875 C 129.910156 168.511719 130.125 168.117188 130.164062 167.667969 C 131.652344 150.050781 146.492188 136.199219 164.539062 136.199219 C 169.722656 136.199219 174.625 137.339844 179.027344 139.386719 " fill-opacity="1" fill-rule="evenodd"/></g><path fill="#57b7eb" d="M 136.300781 237.363281 C 137.210938 235.789062 136.671875 233.792969 135.09375 232.882812 C 133.527344 231.976562 131.527344 232.511719 130.613281 234.085938 L 118.972656 254.1875 C 118.074219 255.75 118.613281 257.757812 120.179688 258.667969 C 121.746094 259.566406 123.761719 259.027344 124.671875 257.464844 L 136.300781 237.363281 " fill-opacity="1" fill-rule="evenodd"/><path fill="#000000" d="M 137.726562 238.183594 C 139.085938 235.828125 138.277344 232.820312 135.914062 231.464844 C 133.566406 230.105469 130.550781 230.914062 129.191406 233.269531 L 117.5625 253.367188 C 116.1875 255.722656 116.996094 258.734375 119.359375 260.089844 C 121.71875 261.433594 124.734375 260.640625 126.082031 258.285156 Z M 134.875 236.546875 L 123.246094 256.644531 C 122.785156 257.425781 121.785156 257.695312 121 257.246094 C 120.21875 256.785156 119.949219 255.789062 120.398438 255.007812 L 132.039062 234.90625 C 132.488281 234.125 133.488281 233.84375 134.273438 234.304688 C 135.066406 234.753906 135.335938 235.765625 134.875 236.546875 " fill-opacity="1" fill-rule="evenodd"/><path fill="#57b7eb" d="M 179.527344 237.363281 C 180.441406 235.789062 179.886719 233.792969 178.324219 232.882812 C 176.757812 231.976562 174.742188 232.511719 173.84375 234.085938 L 158.402344 260.742188 C 157.503906 262.304688 158.042969 264.3125 159.609375 265.222656 C 161.175781 266.121094 163.191406 265.582031 164.101562 264.019531 L 179.527344 237.363281 " fill-opacity="1" fill-rule="evenodd"/><g clip-path="url(#9d93b1e442)"><path fill="#000000" d="M 180.953125 238.183594 C 182.3125 235.828125 181.503906 232.820312 179.144531 231.464844 C 176.796875 230.105469 173.777344 230.914062 172.417969 233.269531 L 156.992188 259.921875 C 155.617188 262.277344 156.425781 265.289062 158.789062 266.644531 C 161.148438 267.988281 164.164062 267.195312 165.511719 264.839844 Z M 178.105469 236.546875 L 162.675781 263.199219 C 162.214844 263.980469 161.214844 264.25 160.429688 263.800781 C 159.648438 263.339844 159.378906 262.34375 159.828125 261.5625 L 175.253906 234.90625 C 175.71875 234.125 176.71875 233.84375 177.5 234.304688 C 178.285156 234.753906 178.554688 235.765625 178.105469 236.546875 " fill-opacity="1" fill-rule="evenodd"/></g><path fill="#57b7eb" d="M 215.160156 237.363281 C 216.070312 235.789062 215.53125 233.792969 213.953125 232.882812 C 212.386719 231.976562 210.382812 232.511719 209.472656 234.085938 L 197.832031 254.1875 C 196.933594 255.75 197.472656 257.757812 199.039062 258.667969 C 200.605469 259.566406 202.621094 259.027344 203.53125 257.464844 L 215.160156 237.363281 " fill-opacity="1" fill-rule="evenodd"/><path fill="#000000" d="M 216.582031 238.183594 C 217.945312 235.828125 217.136719 232.820312 214.773438 231.464844 C 212.425781 230.105469 209.410156 230.914062 208.046875 233.269531 L 196.421875 253.367188 C 195.046875 255.722656 195.855469 258.734375 198.21875 260.089844 C 200.578125 261.433594 203.59375 260.640625 204.941406 258.285156 Z M 213.734375 236.546875 L 202.105469 256.644531 C 201.644531 257.425781 200.644531 257.695312 199.859375 257.246094 C 199.078125 256.785156 198.808594 255.789062 199.257812 255.007812 L 210.898438 234.90625 C 211.347656 234.125 212.347656 233.84375 213.132812 234.304688 C 213.925781 234.753906 214.195312 235.765625 213.734375 236.546875 " fill-opacity="1" fill-rule="evenodd"/><path fill="#57b7eb" d="M 254.589844 237.363281 C 255.5 235.789062 254.960938 233.792969 253.382812 232.882812 C 251.816406 231.976562 249.8125 232.511719 248.902344 234.085938 L 240.804688 248.066406 C 239.890625 249.644531 240.429688 251.640625 242.011719 252.550781 C 243.574219 253.457031 245.589844 252.921875 246.488281 251.34375 L 254.589844 237.363281 " fill-opacity="1" fill-rule="evenodd"/><path fill="#000000" d="M 256.011719 238.183594 C 257.375 235.828125 256.566406 232.820312 254.203125 231.464844 C 251.855469 230.105469 248.839844 230.914062 247.476562 233.269531 L 239.378906 247.25 C 238.019531 249.605469 238.828125 252.613281 241.1875 253.96875 C 243.539062 255.328125 246.554688 254.519531 247.914062 252.164062 Z M 253.164062 236.546875 L 245.078125 250.527344 C 244.617188 251.308594 243.613281 251.589844 242.832031 251.128906 C 242.046875 250.679688 241.777344 249.667969 242.226562 248.886719 L 250.328125 234.90625 C 250.777344 234.125 251.777344 233.84375 252.5625 234.304688 C 253.355469 234.753906 253.625 235.765625 253.164062 236.546875 " fill-opacity="1" fill-rule="evenodd"/></svg>