<svg xmlns="http://www.w3.org/2000/svg" xmlns:xlink="http://www.w3.org/1999/xlink" width="500" zoomAndPan="magnify" viewBox="0 0 375 374.999991" height="500" preserveAspectRatio="xMidYMid meet" version="1.0"><defs><clipPath id="eb81705642"><path d="M 157 235 L 182 235 L 182 270.628906 L 157 270.628906 Z M 157 235 " clip-rule="nonzero"/></clipPath><clipPath id="b3ab207400"><path d="M 104 104.128906 L 227 104.128906 L 227 184 L 104 184 Z M 104 104.128906 " clip-rule="nonzero"/></clipPath><clipPath id="f886319545"><path d="M 98 116 L 276.984375 116 L 276.984375 233 L 98 233 Z M 98 116 " clip-rule="nonzero"/></clipPath></defs><rect x="-37.5" width="450" fill="#ffffff" y="-37.499999" height="449.999989" fill-opacity="1"/><rect x="-37.5" width="450" fill="#3ea0e0" y="-37.499999" height="449.999989" fill-opacity="1"/><path fill="#57b7eb" d="M 138.5625 241.421875 C 139.429688 239.917969 138.917969 238.007812 137.414062 237.140625 C 135.921875 236.273438 134.015625 236.789062 133.148438 238.289062 L 122.0625 257.484375 C 121.207031 258.976562 121.71875 260.894531 123.210938 261.761719 C 124.703125 262.621094 126.621094 262.105469 127.488281 260.613281 L 138.5625 241.421875 " fill-opacity="1" fill-rule="evenodd"/><path fill="#000000" d="M 139.917969 242.203125 C 141.214844 239.953125 140.445312 237.082031 138.195312 235.785156 C 135.960938 234.488281 133.085938 235.257812 131.789062 237.507812 L 120.714844 256.703125 C 119.410156 258.953125 120.179688 261.824219 122.429688 263.121094 C 124.675781 264.40625 127.550781 263.644531 128.832031 261.398438 Z M 137.207031 240.636719 L 126.132812 259.832031 C 125.691406 260.578125 124.738281 260.835938 123.992188 260.40625 C 123.246094 259.964844 122.988281 259.011719 123.417969 258.265625 L 134.503906 239.074219 C 134.933594 238.328125 135.886719 238.058594 136.632812 238.5 C 137.390625 238.925781 137.644531 239.890625 137.207031 240.636719 " fill-opacity="1" fill-rule="evenodd"/><path fill="#57b7eb" d="M 179.730469 241.421875 C 180.597656 239.917969 180.074219 238.007812 178.582031 237.140625 C 177.089844 236.273438 175.171875 236.789062 174.316406 238.289062 L 159.613281 263.746094 C 158.753906 265.234375 159.269531 267.15625 160.761719 268.023438 C 162.25 268.878906 164.171875 268.367188 165.039062 266.875 L 179.730469 241.421875 " fill-opacity="1" fill-rule="evenodd"/><g clip-path="url(#eb81705642)"><path fill="#000000" d="M 181.089844 242.203125 C 182.382812 239.953125 181.613281 237.082031 179.363281 235.785156 C 177.128906 234.488281 174.253906 235.257812 172.960938 237.507812 L 158.265625 262.960938 C 156.957031 265.210938 157.730469 268.085938 159.976562 269.378906 C 162.226562 270.664062 165.101562 269.90625 166.382812 267.65625 Z M 178.375 240.636719 L 163.683594 266.089844 C 163.242188 266.835938 162.289062 267.09375 161.542969 266.667969 C 160.796875 266.226562 160.539062 265.273438 160.96875 264.527344 L 175.660156 239.074219 C 176.101562 238.328125 177.054688 238.058594 177.800781 238.5 C 178.546875 238.925781 178.800781 239.890625 178.375 240.636719 " fill-opacity="1" fill-rule="evenodd"/></g><path fill="#57b7eb" d="M 213.664062 241.421875 C 214.53125 239.917969 214.019531 238.007812 212.515625 237.140625 C 211.023438 236.273438 209.117188 236.789062 208.25 238.289062 L 197.160156 257.484375 C 196.304688 258.976562 196.820312 260.894531 198.3125 261.761719 C 199.800781 262.621094 201.722656 262.105469 202.589844 260.613281 L 213.664062 241.421875 " fill-opacity="1" fill-rule="evenodd"/><path fill="#000000" d="M 215.019531 242.203125 C 216.316406 239.953125 215.546875 237.082031 213.296875 235.785156 C 211.058594 234.488281 208.1875 235.257812 206.890625 237.507812 L 195.816406 256.703125 C 194.507812 258.953125 195.28125 261.824219 197.527344 263.121094 C 199.777344 264.40625 202.648438 263.644531 203.933594 261.398438 Z M 212.304688 240.636719 L 201.230469 259.832031 C 200.792969 260.578125 199.839844 260.835938 199.09375 260.40625 C 198.347656 259.964844 198.089844 259.011719 198.519531 258.265625 L 209.605469 239.074219 C 210.03125 238.328125 210.988281 238.058594 211.730469 238.5 C 212.488281 238.925781 212.746094 239.890625 212.304688 240.636719 " fill-opacity="1" fill-rule="evenodd"/><path fill="#57b7eb" d="M 251.214844 241.421875 C 252.082031 239.917969 251.566406 238.007812 250.066406 237.140625 C 248.574219 236.273438 246.667969 236.789062 245.796875 238.289062 L 238.085938 251.640625 C 237.21875 253.144531 237.730469 255.050781 239.234375 255.917969 C 240.726562 256.789062 242.644531 256.273438 243.5 254.769531 L 251.214844 241.421875 " fill-opacity="1" fill-rule="evenodd"/><path fill="#000000" d="M 252.570312 242.203125 C 253.867188 239.953125 253.097656 237.082031 250.847656 235.785156 C 248.609375 234.488281 245.738281 235.257812 244.441406 237.507812 L 236.730469 250.859375 C 235.433594 253.109375 236.203125 255.980469 238.453125 257.277344 C 240.6875 258.574219 243.5625 257.800781 244.859375 255.554688 Z M 249.855469 240.636719 L 242.15625 253.988281 C 241.714844 254.734375 240.761719 255.003906 240.015625 254.5625 C 239.269531 254.136719 239.015625 253.167969 239.441406 252.421875 L 247.15625 239.074219 C 247.582031 238.328125 248.535156 238.058594 249.28125 238.5 C 250.039062 238.925781 250.296875 239.890625 249.855469 240.636719 " fill-opacity="1" fill-rule="evenodd"/><path fill="#738b95" d="M 160.40625 124.839844 C 163.976562 113.738281 174.402344 105.695312 186.6875 105.695312 C 201.917969 105.695312 214.285156 118.066406 214.285156 133.300781 C 214.285156 136.269531 213.824219 139.128906 212.953125 141.808594 C 220.03125 145.253906 224.910156 152.519531 224.910156 160.917969 C 224.910156 172.578125 215.472656 182.078125 203.8125 182.152344 L 124.984375 182.152344 C 114.496094 182.078125 106 173.546875 106 163.03125 C 106 152.492188 114.566406 143.921875 125.105469 143.921875 C 125.863281 143.921875 126.597656 143.960938 127.316406 144.046875 C 128.332031 132.089844 138.367188 122.6875 150.589844 122.6875 C 154.097656 122.6875 157.421875 123.457031 160.40625 124.839844 " fill-opacity="1" fill-rule="evenodd"/><g clip-path="url(#b3ab207400)"><path fill="#000000" d="M 159.488281 122.761719 C 163.71875 111.855469 174.304688 104.128906 186.6875 104.128906 C 202.785156 104.128906 215.851562 117.199219 215.851562 133.300781 C 215.851562 135.976562 215.496094 138.570312 214.824219 141.027344 C 221.765625 144.925781 226.472656 152.371094 226.472656 160.917969 C 226.472656 173.449219 216.339844 183.632812 203.824219 183.714844 L 124.984375 183.714844 C 113.628906 183.644531 104.433594 174.402344 104.433594 163.03125 C 104.433594 151.625 113.699219 142.359375 125.105469 142.359375 C 125.386719 142.359375 125.667969 142.359375 125.9375 142.371094 C 127.71875 130.351562 138.085938 121.121094 150.589844 121.121094 C 153.71875 121.121094 156.726562 121.699219 159.488281 122.761719 Z M 159.746094 126.257812 C 160.148438 126.453125 160.625 126.453125 161.03125 126.28125 C 161.445312 126.097656 161.761719 125.742188 161.898438 125.328125 C 165.269531 114.851562 175.097656 107.257812 186.6875 107.257812 C 201.0625 107.257812 212.722656 118.933594 212.722656 133.300781 C 212.722656 136.097656 212.28125 138.800781 211.464844 141.332031 C 211.230469 142.066406 211.574219 142.871094 212.269531 143.214844 C 218.820312 146.40625 223.34375 153.128906 223.34375 160.917969 C 223.34375 171.722656 214.605469 180.515625 203.800781 180.585938 C 203.8125 180.585938 203.675781 180.585938 203.675781 180.585938 C 203.675781 180.585938 125.105469 180.585938 125.105469 180.585938 C 125.117188 180.585938 124.996094 180.585938 124.996094 180.585938 C 115.363281 180.527344 107.5625 172.675781 107.5625 163.03125 C 107.5625 153.347656 115.421875 145.488281 125.105469 145.488281 C 125.800781 145.488281 126.472656 145.523438 127.132812 145.597656 C 127.5625 145.648438 127.976562 145.523438 128.308594 145.253906 C 128.636719 144.988281 128.832031 144.609375 128.882812 144.179688 C 129.824219 133.019531 139.1875 124.253906 150.589844 124.253906 C 153.855469 124.253906 156.957031 124.972656 159.746094 126.257812 " fill-opacity="1" fill-rule="evenodd"/></g><path fill="#9bb9c1" d="M 179.914062 146.429688 C 185.183594 130.070312 200.546875 118.214844 218.652344 118.214844 C 241.105469 118.214844 259.332031 136.441406 259.332031 158.898438 C 259.332031 163.277344 258.632812 167.480469 257.363281 171.429688 C 267.789062 176.515625 274.976562 187.214844 274.976562 199.585938 C 274.976562 216.785156 261.066406 230.773438 243.890625 230.882812 L 127.71875 230.882812 C 112.257812 230.785156 99.742188 218.203125 99.742188 202.714844 C 99.742188 187.164062 112.355469 174.546875 127.902344 174.546875 C 129.003906 174.546875 130.09375 174.609375 131.15625 174.730469 C 132.660156 157.113281 147.449219 143.25 165.453125 143.25 C 170.625 143.25 175.527344 144.386719 179.914062 146.429688 " fill-opacity="1" fill-rule="evenodd"/><g clip-path="url(#f886319545)"><path fill="#000000" d="M 178.996094 144.328125 C 184.9375 128.175781 200.460938 116.648438 218.652344 116.648438 C 241.972656 116.648438 260.894531 135.574219 260.894531 158.898438 C 260.894531 162.96875 260.320312 166.90625 259.246094 170.636719 C 269.535156 176.1875 276.539062 187.078125 276.539062 199.585938 C 276.539062 217.65625 261.933594 232.335938 243.890625 232.445312 L 127.707031 232.445312 C 111.390625 232.347656 98.175781 219.058594 98.175781 202.714844 C 98.175781 186.308594 111.5 172.984375 127.902344 172.984375 C 128.527344 172.984375 129.152344 173.007812 129.761719 173.042969 C 132.046875 155.367188 147.167969 141.6875 165.453125 141.6875 C 170.246094 141.6875 174.816406 142.628906 178.996094 144.328125 Z M 179.253906 147.859375 C 179.671875 148.042969 180.132812 148.042969 180.550781 147.871094 C 180.953125 147.6875 181.269531 147.347656 181.40625 146.90625 C 186.480469 131.171875 201.246094 119.777344 218.652344 119.777344 C 240.238281 119.777344 257.765625 137.308594 257.765625 158.898438 C 257.765625 163.105469 257.105469 167.152344 255.871094 170.953125 C 255.625 171.699219 255.96875 172.492188 256.675781 172.835938 C 266.578125 177.664062 273.410156 187.835938 273.410156 199.585938 C 273.410156 215.929688 260.199219 229.21875 243.878906 229.316406 C 243.878906 229.316406 243.671875 229.316406 243.671875 229.316406 C 243.683594 229.316406 127.902344 229.316406 127.902344 229.316406 C 127.917969 229.316406 127.71875 229.316406 127.71875 229.316406 C 113.125 229.21875 101.304688 217.335938 101.304688 202.714844 C 101.304688 188.03125 113.222656 176.113281 127.902344 176.113281 C 128.941406 176.113281 129.96875 176.171875 130.972656 176.285156 C 131.398438 176.332031 131.828125 176.210938 132.144531 175.941406 C 132.476562 175.671875 132.683594 175.292969 132.71875 174.867188 C 134.136719 158.042969 148.269531 144.816406 165.453125 144.816406 C 170.390625 144.816406 175.0625 145.902344 179.253906 147.859375 " fill-opacity="1" fill-rule="evenodd"/></g><path fill="#ffe07d" d="M 217.683594 168.289062 C 217.683594 168.289062 187.738281 200.234375 175.683594 213.09375 C 174.828125 214 174.597656 215.332031 175.097656 216.480469 C 175.601562 217.617188 176.722656 218.363281 177.972656 218.363281 C 184.351562 218.363281 192.652344 218.363281 192.652344 218.363281 L 180.132812 255.917969 C 180.132812 255.917969 210.082031 223.976562 222.132812 211.113281 C 222.988281 210.210938 223.222656 208.875 222.722656 207.726562 C 222.230469 206.589844 221.09375 205.84375 219.847656 205.84375 C 214.554688 205.84375 208.296875 205.84375 208.296875 205.84375 L 217.683594 168.289062 " fill-opacity="1" fill-rule="evenodd"/><path fill="#000000" d="M 190.476562 219.929688 L 177.972656 219.929688 C 176.101562 219.929688 174.402344 218.816406 173.667969 217.105469 C 172.921875 215.378906 173.265625 213.386719 174.546875 212.019531 C 186.601562 199.15625 216.546875 167.210938 216.546875 167.210938 C 217.035156 166.699219 217.808594 166.578125 218.429688 166.917969 C 219.066406 167.25 219.371094 167.96875 219.199219 168.667969 L 210.300781 204.28125 L 219.847656 204.28125 C 221.71875 204.28125 223.417969 205.390625 224.164062 207.105469 C 224.898438 208.828125 224.554688 210.820312 223.269531 212.191406 C 211.21875 225.050781 181.285156 256.996094 181.285156 256.996094 C 180.769531 257.519531 179.964844 257.644531 179.339844 257.265625 C 178.703125 256.886719 178.421875 256.128906 178.65625 255.429688 Z M 214.703125 173.753906 L 176.835938 214.15625 C 176.40625 214.621094 176.285156 215.28125 176.527344 215.855469 C 176.785156 216.433594 177.347656 216.796875 177.972656 216.796875 C 184.351562 216.796875 192.652344 216.796875 192.652344 216.796875 C 193.152344 216.796875 193.628906 217.042969 193.921875 217.445312 C 194.214844 217.863281 194.300781 218.386719 194.128906 218.851562 L 183.875 249.636719 L 220.984375 210.050781 C 221.425781 209.585938 221.535156 208.925781 221.289062 208.351562 C 221.035156 207.777344 220.472656 207.410156 219.847656 207.410156 C 214.554688 207.410156 208.296875 207.410156 208.296875 207.410156 C 207.820312 207.410156 207.355469 207.191406 207.0625 206.808594 C 206.769531 206.429688 206.660156 205.929688 206.78125 205.464844 L 214.703125 173.753906 " fill-opacity="1" fill-rule="evenodd"/></svg>